<?xml version="1.0" encoding="UTF-8"?>
<svg width="256" height="256" version="1.1" viewBox="0 0 67.733 67.733" xmlns="http://www.w3.org/2000/svg"><g stroke="#502d16"><g stroke-width=".26458"><path d="m9.5371 52.175c-1.0634-2.6261-0.73816-4.4852 0.025943-6.1019l-3.5659-2.648c-0.98998 2.9439-2.745 5.865-2.0863 8.858z" fill="#0f0"/><path d="m8.7854 51.12c-1.0634-2.6261-0.73816-4.4852 0.025943-6.1019l-3.5659-2.648c-0.98998 2.9439-2.745 5.865-2.0863 8.858z" fill="#008000"/><path d="m7.2268 30.362c0.93889 2.6732 0.52668 4.5149-0.31251 6.0939l3.4376 2.8126c1.1272-2.8942 3.0174-5.7296 2.5001-8.7503z" fill="#0f0"/><path d="m7.9281 31.451c0.93889 2.6732 0.52668 4.5149-0.31251 6.0939l3.4376 2.8126c1.1272-2.8942 3.0174-5.7296 2.5001-8.7503z" fill="#008000"/></g><g><g stroke-width=".26458"><ellipse transform="matrix(-.73146 .68188 .68188 .73146 0 0)" cx="21.254" cy="51.431" rx="5.4752" ry="13.6" fill="#f55"/><ellipse transform="scale(-1,1)" cx="-9.5229" cy="41.956" rx="5.247" ry="7.0672" fill="#d38d5f"/><ellipse cx="25.658" cy="73.205" rx="18.985" ry="29.923" fill="#f55"/><path d="m30.879 17.593c-1.1447-4.5797-4.8547-15.256 6.6009-15.729 5.8818-0.2429 2.5318 4.5833 2.5318 4.5833s6.4951-6.4599 10.587-4.2264c5.0184 2.7395 2.1866 10.278 2.1866 10.278s4.058-5.089 9.4368 1.3889c2.4116 2.9044-2.0489 9.7555-2.0489 9.7555s5.8331-0.83272 5.8692 5c0.03287 5.3048-7.6181 3.4986-7.6181 3.4986s1.9714 3.4313-0.22909 8.0555c-1.1883 2.4972-5.0267 2.0426-7.1352 0.69444-2.611-1.6694-2.3188-6.5622-4.3732-9.3055-4.2181-5.6327-15.808-13.993-15.808-13.993z" fill="#28170b"/></g><ellipse transform="matrix(1 0 -.16921 .98558 0 0)" cx="40.195" cy="32.489" rx="15.444" ry="15.732" fill="#d38d5f" stroke-width=".26651"/></g><g fill="#2b1100" stroke-width=".26458"><path d="m22.142 35.001c2.8122 4.5807 5.0725 4.7455 7.5002 6.2502-0.0087 0.06969-7.5551 2.7831-7.5002-6.2502z"/><path d="m20.621 35.049c1.4348-0.4026 1.5185-0.75291 2.0122-1.1191 0.02107 0.0019 0.7341 1.1963-2.0122 1.1191z"/><path d="m28.867 42.71c0.79883-1.258 1.1584-1.2373 1.6513-1.6046 0.0043-0.02072-0.93411-1.0476-1.6513 1.6046z"/></g><g><ellipse transform="matrix(1 0 -.62675 .77922 0 0)" cx="52.29" cy="29.778" rx=".69102" ry="2.5788" fill="#28170b" stroke-width=".29973"/><ellipse transform="matrix(1 0 -.62675 .77922 0 0)" cx="56.699" cy="32.563" rx=".69102" ry="2.5788" fill="#28170b" stroke-width=".29973"/><ellipse transform="rotate(42.991)" cx="66.847" cy="9.6742" rx="5.4752" ry="13.6" fill="#f55" stroke-width=".26458"/></g><g stroke-width=".26458"><g><path d="m44.395 48.817c2.5626-1.2085 3.5845-2.7953 4.1195-4.5015l4.4164 0.47268c-1.2692 2.8347-1.9608 6.1716-4.4748 7.9242z" fill="#0f0"/><path d="m45.662 48.552c2.5626-1.2085 3.5845-2.7953 4.1195-4.5015l4.4164 0.47268c-1.2692 2.8347-1.9608 6.1716-4.4748 7.9242z" fill="#008000"/><path d="m49.723 52.448z" fill="none"/><path d="m61.599 35.871c-2.6081 1.1069-3.6916 2.6523-4.2932 4.3362l-4.3944-0.64584c1.3796-2.7827 2.2018-6.0898 4.7827-7.7423z" fill="#0f0"/><path d="m60.322 36.086c-2.6081 1.1069-3.6916 2.6523-4.2932 4.3362l-4.3944-0.64584c1.3796-2.7827 2.2018-6.0898 4.7827-7.7423z" fill="#008000"/></g><ellipse cx="52.299" cy="42.501" rx="5.247" ry="7.0672" fill="#d38d5f"/></g><g fill="none" stroke-width=".26458"><path d="m3.1591 51.228z"/><path d="m59.125 33.23z"/><path d="m13.553 31.607z"/></g></g><g fill="#333" stroke="#1a1a1a" stroke-width=".25"><path transform="rotate(45.064)" d="m42.336-10.696a3.0791 7.4464 0 0 1-1.5396 6.4488 3.0791 7.4464 0 0 1-3.0791-2e-7 3.0791 7.4464 0 0 1-1.5396-6.4488h3.0791z"/><path transform="rotate(45.064)" d="m48.409-10.696a3.0791 7.4464 0 0 1-1.5396 6.4488 3.0791 7.4464 0 0 1-3.0791-2e-7 3.0791 7.4464 0 0 1-1.5396-6.4488h3.0791z"/></g><ellipse cx="23.441" cy="21.134" rx="6.6118" ry="9.682" fill="#d38d5f" stroke="#502d16" stroke-width=".26458"/></svg>
